<svg width="90" height="126" viewBox="0 0 90 126" fill="none" xmlns="http://www.w3.org/2000/svg">
<mask id="mask0" mask-type="alpha" maskUnits="userSpaceOnUse" x="1" y="3" width="87" height="116">
<path d="M41.5009 3.52652C16.7545 5.09252 -0.914348 27.3999 1.34825 51.5091C4.36505 83.6013 31.5019 109.367 41.0653 117.521C42.9859 119.159 45.8191 119.128 47.7361 117.492C57.9061 108.816 87.6925 80.4333 87.6925 45.7167C87.6925 22.3689 68.2993 3.43652 44.3845 3.43652C43.4287 3.43652 42.4693 3.46712 41.5009 3.52652Z" fill="white"/>
</mask>
<g mask="url(#mask0)">
<path d="M41.5009 3.52652C16.7545 5.09252 -0.914348 27.3999 1.34825 51.5091C4.36505 83.6013 31.5019 109.367 41.0653 117.521C42.9859 119.159 45.8191 119.128 47.7361 117.492C57.9061 108.816 87.6925 80.4333 87.6925 45.7167C87.6925 22.3689 68.2993 3.43652 44.3845 3.43652C43.4287 3.43652 42.4693 3.46712 41.5009 3.52652Z" fill="#FED925"/>
<path d="M60.9715 51.0879C58.5199 57.6237 52.7959 62.5161 47.7829 67.0179C36.0091 77.5875 31.4569 93.7425 35.1649 108.981C37.0459 116.709 40.1797 124.359 47.9989 119.196" stroke="#FEFEFE" stroke-width="2"/>
</g>
<path fill-rule="evenodd" clip-rule="evenodd" d="M25.3649 44.4522C25.3649 55.065 34.0301 63.669 44.7221 63.669C55.4141 63.669 64.0793 55.065 64.0793 44.4522C64.0793 33.8394 55.4141 25.2354 44.7221 25.2354C34.0301 25.2354 25.3649 33.8394 25.3649 44.4522Z" fill="#FEFEFE"/>
<path fill-rule="evenodd" clip-rule="evenodd" d="M45.1685 24.4776C44.5205 24.3876 43.8581 24.42 43.2245 24.591C40.4705 25.3398 39.1853 28.1136 39.7847 30.7416C40.1177 32.205 39.0611 33.7044 37.4501 33.249C38.5337 34.5576 40.3877 34.6512 41.9573 34.6764C45.1829 34.7268 48.3293 32.745 48.9467 29.5644C49.2527 27.9984 48.8441 26.3964 47.5229 25.4262C46.8353 24.9222 46.0145 24.5946 45.1685 24.4776ZM38.2745 43.5288C40.8701 43.5288 40.8737 39.5256 38.2745 39.5256C35.6771 39.5256 35.6735 43.5288 38.2745 43.5288ZM51.4829 43.5288C54.0785 43.5288 54.0821 39.5256 51.4829 39.5256C48.8855 39.5256 48.8819 43.5288 51.4829 43.5288ZM44.8949 52.3416C40.6379 52.3416 38.7497 50.5812 38.6723 50.5092C38.3375 50.1906 38.3285 49.665 38.6489 49.3356C38.9639 49.0062 39.4877 48.9972 39.8207 49.3086C39.8567 49.3392 41.3921 50.6838 44.8967 50.6838C48.4247 50.6838 49.9547 49.3212 49.9727 49.3086C50.3057 48.999 50.8349 49.0134 51.1481 49.3446C51.4613 49.6776 51.4505 50.1924 51.1211 50.5092C51.0437 50.5812 49.1555 52.3416 44.8967 52.3416" fill="#231916"/>
</svg>
