<svg width="156" height="40" viewBox="0 0 156 40" fill="none" xmlns="http://www.w3.org/2000/svg">
<path d="M141.968 23.3245V17.9161H147.15V14.6711H138.852C137.351 14.6711 135.962 13.654 135.72 12.1849C135.414 10.3121 136.867 8.68155 138.675 8.68155H147.134V5.43652H138.836C135.882 5.43652 133.186 7.42228 132.572 10.3121C131.716 14.2836 134.687 17.8193 138.497 17.9323V23.3407H131.377V26.5857H149.072V23.3245H141.968Z" fill="black"/>
<path d="M12.2802 7.61621C8.80912 7.61621 6 10.4092 6 13.8318C6 17.2706 8.80912 20.0636 12.2802 20.0636C15.7351 20.0636 18.5603 17.2706 18.5603 13.8318C18.5603 10.4092 15.7351 7.61621 12.2802 7.61621ZM12.2802 16.8185C10.698 16.8185 9.4549 15.5108 9.4549 13.8318C9.4549 12.1851 10.7142 10.8451 12.2802 10.8451C13.8139 10.8451 15.1054 12.2174 15.1054 13.8318C15.0893 15.4785 13.83 16.8185 12.2802 16.8185Z" fill="black"/>
<path d="M26.8102 12.1368H20.6107V15.3818H26.8102V23.3894H17.8823V35.8368H30.2166V24.0029C30.2166 24.0029 30.2166 24.0029 30.2166 23.9868C30.2166 23.9706 30.2166 23.9868 30.2166 23.9706V4H26.8102V12.1368ZM26.8102 32.5917H21.2888V26.6344H26.8263V32.5917H26.8102Z" fill="black"/>
<path d="M37.1426 20.0636H49.4769V7.61621H37.1426V20.0636ZM40.5329 10.8612H46.0704V16.8185H40.5329V10.8612Z" fill="black"/>
<path d="M59.8576 4H56.4512V24.5841H59.8576V15.9146H64.9754V12.6695H59.8576V4Z" fill="black"/>
<path d="M86.9157 24.9395H69.2214V28.1845H86.9157V24.9395Z" fill="black"/>
<path d="M78.0686 20.0636C81.5235 20.0636 84.3488 17.2706 84.3488 13.8318C84.3488 10.4092 81.5397 7.61621 78.0686 7.61621C74.6137 7.61621 71.7885 10.4092 71.7885 13.8318C71.7885 17.2706 74.6137 20.0636 78.0686 20.0636ZM78.0686 10.8612C79.6023 10.8612 80.8939 12.2335 80.8939 13.848C80.8939 15.4947 79.6346 16.8347 78.0686 16.8347C76.4865 16.8347 75.2434 15.527 75.2434 13.848C75.2595 12.1851 76.5188 10.8612 78.0686 10.8612Z" fill="black"/>
<path d="M93.3251 4H89.9186V24.5841H93.3251V4Z" fill="black"/>
<path d="M125.404 4H121.997V24.5841H125.404V4Z" fill="black"/>
<path d="M116.476 10.8456V7.60059H101.72V10.8456H106.483L101.462 16.8029L103.932 18.9017L109.098 12.7668L114.264 18.9017L116.751 16.8029L111.713 10.8456H116.476Z" fill="black"/>
</svg>
